<!DOCTYPE svg PUBLIC "-//W3C//DTD SVG 1.1//EN" "http://www.w3.org/Graphics/SVG/1.1/DTD/svg11.dtd">

<!-- Uploaded to: SVG Repo, www.svgrepo.com, Transformed by: SVG Repo Mixer Tools -->
<svg version="1.1" id="Layer_1" xmlns="http://www.w3.org/2000/svg" xmlns:xlink="http://www.w3.org/1999/xlink" viewBox="0 0 512 512" xml:space="preserve" fill="#000000">

<g id="SVGRepo_bgCarrier" stroke-width="0"/>

<g id="SVGRepo_tracerCarrier" stroke-linecap="round" stroke-linejoin="round"/>

<g id="SVGRepo_iconCarrier"> <path style="fill:#FF3B30;" d="M256.001,512C129.958,512,27.414,409.456,27.414,283.414S129.958,54.828,256.001,54.828 c30.65,0,55.497,24.847,55.497,55.497s-24.847,55.497-55.497,55.497c-64.84,0-117.592,52.751-117.592,117.591 c0,64.841,52.752,117.592,117.592,117.592s117.591-52.751,117.591-117.592c0-30.65,24.847-55.497,55.497-55.497 s55.497,24.847,55.497,55.497C484.586,409.456,382.043,512,256.001,512z"/> <path style="fill:#FF3B30;" d="M249.633,400.832c-61.891-3.319-111.225-54.713-111.225-117.419 c0-62.704,49.335-114.099,111.225-117.418V54.921C126.523,58.305,27.414,159.5,27.414,283.414s99.109,225.11,222.218,228.494 V400.832z"/> <path style="fill:#FF3B30;" d="M404.221,72.392L289.103,5.877C282.452,2.032,274.872,0,267.187,0 c-7.677,0-15.249,2.028-21.898,5.865c-13.516,7.801-21.911,22.339-21.911,37.944v133.032c0,15.605,8.396,30.144,21.911,37.943 c6.65,3.837,14.222,5.865,21.898,5.865c7.685,0,15.264-2.032,21.918-5.877l115.117-66.515c13.503-7.803,21.891-22.338,21.891-37.932 C426.113,94.729,417.724,80.194,404.221,72.392z"/> <path style="fill:#FF3B30;" d="M404.221,72.392L289.103,5.877C282.452,2.032,274.872,0,267.187,0 c-7.677,0-15.249,2.028-21.898,5.865c-13.516,7.801-21.911,22.339-21.911,37.944v66.516h202.736 C426.113,94.729,417.724,80.194,404.221,72.392z"/> </g>

</svg>